# xmcd
#
# Track frame offsets: 
#        150
#        12766
#        25913
#        39566
#        54855
#        67595
#        80706
#        90693
#        104267
#        116343
#        128948
#        142558
#
# Disc length: 2068 seconds
#
# Revision: 7
# Processed by: cddbd v1.5.2PL0 Copyright (c) Steve Scherf et al.
# Submitted via: ExactAudioCopy v0.99pb4
#
DISCID=8808120c
DTITLE=Ray Charles - The Genius Sings The Blues (MFSL Hybrid SACD)
DYEAR=1961
DGENRE=Jazz
TTITLE0=Early In The Mornin'
TTITLE1=Hard Times (Nobody Knows Better Than I)
TTITLE2=The Midnight Hour
TTITLE3=The Right Time
TTITLE4=Feelin' Sad
TTITLE5=Ray's Blues
TTITLE6=I'm Movin' On
TTITLE7=I Believe To My Soul
TTITLE8=Nobody Cares
TTITLE9=Mr Charles' Blues
TTITLE10=Some Day Baby
TTITLE11=I Wonder Who
EXTD=The Genius Sings The Blues (MFSL Hybrid SACD]\n© 2010 Mobile Fide
EXTD=lity Sound Lab, Inc.\n\nOriginally Released October 1961\nMFSL Go
EXTD=ld CD Edition Released July 13, 2010\n\nAMG EXPERT REVIEW:  Down-
EXTD=home, anguished laments and moody ballads were turned into triump
EXTD=hs by Ray Charles. He sang these songs with the same conviction, 
EXTD=passion, and energy that made his country and soul vocals so maje
EXTD=stic. This has not turned up in the reissue bins.  -- Ron Wynn
EXTT0=
EXTT1=
EXTT2=
EXTT3=
EXTT4=
EXTT5=
EXTT6=
EXTT7=
EXTT8=
EXTT9=
EXTT10=
EXTT11=
PLAYORDER=
